<?xml version="1.0" encoding="UTF-8" standalone="no"?>
<!-- Created with Inkscape (http://www.inkscape.org/) -->

<svg
   version="1.1"
   id="svg2"
   width="2666.6667"
   height="2666.6667"
   viewBox="0 0 2666.6667 2666.6667"
   sodipodi:docname="smiley.eps"
   xmlns:inkscape="http://www.inkscape.org/namespaces/inkscape"
   xmlns:sodipodi="http://sodipodi.sourceforge.net/DTD/sodipodi-0.dtd"
   xmlns="http://www.w3.org/2000/svg"
   xmlns:svg="http://www.w3.org/2000/svg">
  <defs
     id="defs6" />
  <sodipodi:namedview
     id="namedview4"
     pagecolor="#ffffff"
     bordercolor="#000000"
     borderopacity="0.25"
     inkscape:showpageshadow="2"
     inkscape:pageopacity="0.0"
     inkscape:pagecheckerboard="0"
     inkscape:deskcolor="#d1d1d1" />
  <g
     id="g8"
     inkscape:groupmode="layer"
     inkscape:label="ink_ext_XXXXXX"
     transform="matrix(1.3333333,0,0,-1.3333333,0,2666.6667)">
    <g
       id="g10"
       transform="scale(0.1)">
      <path
         d="M 20000,0 H 0 V 20000 H 20000 V 0"
         style="fill:#ffffff;fill-opacity:0;fill-rule:nonzero;stroke:none"
         id="path12" />
      <path
         d="m 16415,10345 c 20.5,212.4 35,427.2 35,645 0,3656.1 -2963.9,6620 -6620,6620 -3656.12,0 -6620,-2963.9 -6620,-6620 0,-1219 490.24,-2364.1 1065,-3345 135.01,-365.2 150,-780 230,-1160 244.49,-1161.3 755.58,-1925.4 542.69,-2937.6 -54.12,-257.3 -143.5,-516.5 -105.36,-776.7 38.14,-260.1 265.38,-518.9 524.38,-473.8 190.83,33.2 324.33,220.7 357.41,411.5 33.09,190.9 -12.71,385.6 -58.23,573.9 -99.25,410.5 -198.51,820.9 -297.76,1231.4 -67.95,281.1 -98.52,652 157.8,785.7 238.37,124.5 520.62,-79.3 667.6,-304.4 146.97,-225.2 254.88,-500.4 493.78,-623.8 415.73,-214.8 970.88,159.8 1373.33,-78.9 317.87,-188.6 336.86,-654.5 197.22,-996.7 -139.63,-342.2 -392.79,-632 -508.9,-982.8 -116.11,-350.9 -25.77,-824.1 323.63,-944.5 298.31,-102.8 633.22,123.8 747.01,418.1 79.81,206.4 30.69,579.7 -5.76,784.3 -9.82,55.1 47.01,98.3 97.27,73.7 136.08,-66.6 349.76,-144.1 472.27,-50.5 189.77,144.9 264.15,392.3 321.45,624.2 57.31,231.8 116.6,479.6 290.27,643.5 290.1,273.6 755,195.6 1136.3,78.8 381.3,-116.7 815.7,-249.3 1158.2,-45.1 392.3,233.8 525.8,842.7 976.1,918.6 331.2,55.8 618,-224.4 815.1,-496.3 197.2,-271.9 406,-586.4 735.9,-649.5 339.9,-65 682.1,190.3 806.6,513.2 124.5,322.8 72.2,688.6 -40,1015.9 -139.9,408.1 -373.3,822.9 -277.8,1243.6 73.1,322.1 -68,582.4 119.5,854.2 317.4,460 957.6,2556.7 890,3050"
         style="fill:#edf04c;fill-opacity:1;fill-rule:nonzero;stroke:none"
         id="path14" />
      <path
         d="m 16415,10345 c 20.5,212.4 35,427.2 35,645 0,3656.1 -2963.9,6620 -6620,6620 -3656.12,0 -6620,-2963.9 -6620,-6620 0,-1219 490.24,-2364.1 1065,-3345 135.01,-365.2 150,-780 230,-1160 244.49,-1161.3 755.58,-1925.4 542.69,-2937.6 -54.12,-257.3 -143.5,-516.5 -105.36,-776.7 38.14,-260.1 265.38,-518.9 524.38,-473.8 190.83,33.2 324.33,220.7 357.41,411.5 33.09,190.9 -12.71,385.6 -58.23,573.9 -99.25,410.5 -198.51,820.9 -297.76,1231.4 -67.95,281.1 -98.52,652 157.8,785.7 238.37,124.5 520.62,-79.3 667.6,-304.4 146.97,-225.2 254.88,-500.4 493.78,-623.8 415.73,-214.8 970.88,159.8 1373.33,-78.9 317.87,-188.6 336.86,-654.5 197.22,-996.7 -139.63,-342.2 -392.79,-632 -508.9,-982.8 -116.11,-350.9 -25.77,-824.1 323.63,-944.5 298.31,-102.8 633.22,123.8 747.01,418.1 79.81,206.4 30.69,579.7 -5.76,784.3 -9.82,55.1 47.01,98.3 97.27,73.7 136.08,-66.6 349.76,-144.1 472.27,-50.5 189.77,144.9 264.15,392.3 321.45,624.2 57.31,231.8 116.6,479.6 290.27,643.5 290.1,273.6 755,195.6 1136.3,78.8 381.3,-116.7 815.7,-249.3 1158.2,-45.1 392.3,233.8 525.8,842.7 976.1,918.6 331.2,55.8 618,-224.4 815.1,-496.3 197.2,-271.9 406,-586.4 735.9,-649.5 339.9,-65 682.1,190.3 806.6,513.2 124.5,322.8 72.2,688.6 -40,1015.9 -139.9,408.1 -373.3,822.9 -277.8,1243.6 73.1,322.1 -68,582.4 119.5,854.2 317.4,460 957.6,2556.7 890,3050 z"
         style="fill:none;stroke:#131212;stroke-width:190;stroke-linecap:butt;stroke-linejoin:miter;stroke-miterlimit:10;stroke-dasharray:none;stroke-opacity:1"
         id="path16" />
      <path
         d="m 6275,9285 c 0,-475.9 491.5,-269.5 765.63,-338.6 566.15,-142.9 128.71,-810.7 403.4,-1186.6 398.22,-545 659.17,222.7 994.7,334.5 450.66,150.2 458.27,-406.7 605.13,-702.4 449.5,-905.2 1348.44,691.9 1974.44,723.1 484.2,24.1 982.4,-429.4 1238.7,214.2 95.1,238.6 74.3,460.5 220.1,689.5 168.9,265.3 719.6,253.6 547.9,636.3"
         style="fill:none;stroke:#131212;stroke-width:190;stroke-linecap:round;stroke-linejoin:miter;stroke-miterlimit:10;stroke-dasharray:none;stroke-opacity:1"
         id="path18" />
      <path
         d="M 12113.4,2406.5 C 11114,270.102 13615,-485 12996.8,2330.2 c -100.5,458 -361.8,934.8 -558.4,933.2 -253.7,-2 -213.4,-618.4 -325,-856.9"
         style="fill:#edf04c;fill-opacity:1;fill-rule:nonzero;stroke:none"
         id="path20" />
      <path
         d="M 12113.4,2406.5 C 11114,270.102 13615,-485 12996.8,2330.2 c -100.5,458 -361.8,934.8 -558.4,933.2 -253.7,-2 -213.4,-618.4 -325,-856.9 z"
         style="fill:none;stroke:#131212;stroke-width:190;stroke-linecap:butt;stroke-linejoin:miter;stroke-miterlimit:10;stroke-dasharray:none;stroke-opacity:1"
         id="path22" />
      <path
         d="m 9060.31,11189.6 c -167.91,60.8 -333.11,128.6 -495.51,202.7 47.39,48.1 67.91,126.4 113.57,169.3 44.85,42.1 122.98,24.2 175.48,68.2 61.33,51.4 66.58,130.1 95.02,199.7 28.53,69.9 80.68,125.3 115.9,191.4 30.29,56.9 53.05,129.5 17.1,190 -35.44,59.7 -108.71,67.2 -162.45,25.9 -62.26,-47.8 -111.3,-135.8 -165.2,-194 -64.42,-69.6 -132.63,-135.7 -204.04,-198.1 -61.29,-53.5 -125,-104.3 -190.76,-152.2 -38.57,-28.1 -77.94,-55.1 -117.9,-81.2 -56.43,-36.8 -67.29,-25.1 -124.88,6.8 -165.13,91.2 -326.28,189.6 -482.9,294.7 -76.75,51.6 -152.44,104.7 -226.96,159.4 -61.78,45.3 -138.75,134.5 -222.62,127.3 -207.74,-17.6 -31.71,-249.7 45.49,-302.5 56.88,-38.9 148.85,-78.6 164.86,-153.5 15.07,-70.6 -41.08,-134 19.64,-197.1 55.08,-57.3 129.44,-34.7 198.05,-45.6 86.53,-13.8 76.49,-89.9 117.75,-153.3 -218.74,-86.1 -448.02,-145.2 -681.5,-173 -124.46,-14.8 -475.96,45.9 -414.05,-173.1 20.99,-74.2 83.03,-112.6 137.16,-161.8 74.87,-68.1 127.03,-148.6 135.55,-251.6 7.57,-91.4 -20.64,-195 35.18,-276.6 54.28,-79.3 172.01,-84.5 228.41,-3.3 88.85,127.9 -57.44,300.7 76.73,413.3 50.75,42.5 143.32,77 207.06,90.1 105.85,21.8 160.13,-36.2 209.52,-122.8 86.41,-151.5 232.97,-324.6 426.67,-210.5 65.24,38.5 86.73,130 154.21,159.1 82.08,35.5 163.72,-43.4 249.52,7.2 145.1,85.5 88.96,477.3 322.92,307 75.36,-54.9 169.75,-89.9 239.96,-1.3 14.31,18 16.14,31.1 25.51,49.9 6.41,12.9 31.04,53.4 34.53,67.9 12.05,49.9 -4.28,102.6 -57.02,121.6"
         style="fill:#131212;fill-opacity:1;fill-rule:nonzero;stroke:none"
         id="path24" />
      <path
         d="m 12830.6,11025.5 c -21.4,99.6 -71.6,171.9 -177,182.4 -123.1,12.3 -241.6,31.9 -362.3,62.8 -259,66.1 -509.8,163.9 -745.9,289.2 37,41.4 123,2.2 168.6,1 76,-2 153.1,34.8 201.5,93.2 51.6,62.5 41.2,155.4 105.8,205.5 59.8,46.4 140.3,56.6 201.2,106 87.6,70.9 186.3,230.3 103.6,335.9 -123.1,157 -301.1,-97.1 -400.5,-179.3 -146,-120.9 -301.3,-227.9 -461.6,-328.5 -36.6,-22.9 -74.2,-44.3 -111.8,-65.5 -56.6,-32 -65.2,-16.9 -115.6,17.1 -88.7,59.8 -174.7,123.9 -257.3,191.8 -162,133.2 -311.5,281.4 -445.3,442.9 -44.8,54.1 -90.3,147.9 -169.9,152.4 -87.3,5 -117.5,-105.3 -109.8,-180.6 9.8,-97.2 73.2,-171.3 138.6,-238.1 81.8,-83.6 113.6,-147.1 137.3,-261.2 17.5,-84.3 55.3,-180.1 145.6,-208.6 39,-12.4 81.6,-1.5 120.7,-11.6 61,-15.8 91,-67.4 133.3,-110.4 -110.4,-46.1 -222.8,-87.1 -337,-122.8 -117.5,-36.7 -250,-50.5 -363.8,-94.7 -76.6,-29.8 -93.4,-107.2 -52.9,-176.2 53,-90.1 149.4,-121.6 247,-100.4 72.9,15.8 190,68.4 247.4,-9.5 51.5,-69.9 11.9,-162.9 78.5,-235.1 56.7,-61.5 149.4,-111.9 232.3,-122.8 89.6,-11.8 168.2,85.2 240.6,54.8 150.9,-63.4 188.5,-298.6 170.2,-435.3 -11.4,-84.9 -24.1,-204 79.5,-238.2 95.2,-31.5 182.2,45.4 201.3,134.4 45.5,212.2 -203,345.3 -190,552.8 4.2,67.4 58.7,243.1 126.7,273.4 98.2,43.7 122.2,-90.3 177,-135.9 212.9,-177.3 307.2,286.6 522.9,154 101.7,-62.5 174.9,-129.6 300,-144.3 110.6,-12.9 252.2,5.1 221.1,149.4"
         style="fill:#131212;fill-opacity:1;fill-rule:nonzero;stroke:none"
         id="path26" />
    </g>
  </g>
</svg>
